<svg version="1.1" id="Layer_1" xmlns="http://www.w3.org/2000/svg" x="0" y="0" viewBox="0 0 85.3 41.9" xml:space="preserve"><style>.st1{fill:#1f1f49}</style><path d="M24.4 13.8c-.6 0-1.3.1-1.8.3-.6-.2-1.2-.3-1.8-.3-2 0-4.1 1.1-4.1 3.5v4.1c0 2.4 2.1 3.5 4.1 3.5.6 0 1.3-.1 1.8-.3.6.2 1.2.3 1.8.3 2 0 4.1-1.1 4-3.5v-4.1c0-2.3-2.1-3.4-4-3.5m.4 7.4v-3.7c0-.9-.2-1.7-.7-2.3h.4c1.3 0 2.7.7 2.7 2.1v4.1c0 1.5-1.4 2.2-2.7 2.2h-.4c.5-.6.7-1.4.7-2.4m-4.5-3.7v3.7c-.1.9.2 1.8.8 2.4h-.4c-1.4 0-2.7-.7-2.7-2.2v-4.1c0-1.5 1.4-2.1 2.7-2.1h.3c-.4.6-.7 1.4-.7 2.3m1.4 4v-4.1c0-.7.3-1.3.9-1.7.4.3.9.8.9 1.7v4.1c0 .9-.5 1.4-.9 1.7-.5-.3-.9-.8-.9-1.7" fill="#4c12a1"/><path class="st1" d="M42.8 14.4h-.3c-.3 0-.6.2-.7.4l-.3.6c-.1.1-.1.3 0 .4.1.1.2.2.4.2h.2c.3 0 .6-.2.7-.5l.3-.7c.1-.1 0-.3 0-.4-.1.1-.2 0-.3 0zM34.5 23.6c-.9 0-1.4-.7-1.4-1.4v-3.9h1c.3 0 .6-.3.6-.6v-.2c0-.3-.3-.6-.6-.6h-1v-2.2c0-.3-.3-.6-.6-.6h-.2c-.3 0-.6.3-.6.6v7.6c0 .8.2 1.4.7 1.9.5.5 1.2.8 2 .8.3 0 .6-.3.6-.6 0-.5-.2-.8-.5-.8zM39.4 16.7c-.3 0-.6 0-.8.1-1.4.3-2.3 1.3-2.3 2.6V24c0 .4.3.7.7.7.4 0 .7-.3.7-.7v-4.6c0-.7.6-1.1 1.1-1.2.3 0 .4-.1.6-.1.4 0 .7-.3.7-.7 0-.3-.3-.7-.7-.7zM41.9 16.8c-.4 0-.7.3-.7.7v6.6c0 .4.3.7.7.7s.7-.3.7-.7v-6.6c0-.4-.3-.7-.7-.7zM46.7 23.4c-.6-.1-.9-.5-.9-1.2v-7.6c0-.4-.3-.7-.7-.7-.4 0-.7.3-.7.7v7.6c0 1.4.7 2.3 2 2.6h.1c.2 0 .3-.1.4-.2.2-.1.3-.3.3-.5.1-.4-.2-.6-.5-.7zM51 16.6c-1.5 0-3.1.9-3.1 2.7v2.9c0 1.8 1.6 2.7 3.1 2.7s3-.9 3-2.7v-2.9c0-1.8-1.6-2.7-3-2.7zm1.6 5.6c0 .9-.9 1.3-1.7 1.3-.8 0-1.7-.4-1.7-1.3v-2.9c0-.9.8-1.3 1.7-1.3.8 0 1.7.4 1.7 1.3v2.9zM65.6 16.6c-1.5 0-3.1.9-3.1 2.7v2.9c0 1.8 1.6 2.7 3.1 2.7s3-.9 3-2.7v-2.9c0-1.8-1.6-2.7-3-2.7zm1.6 5.6c0 .9-.9 1.3-1.7 1.3-.8 0-1.7-.4-1.7-1.3v-2.9c0-.9.8-1.3 1.7-1.3.8 0 1.7.4 1.7 1.3v2.9zM61.4 20.7V18c0-.3-.1-.5-.3-.6-.4-.3-1.5-.8-2.9-.8-1.9 0-3.1 1.1-3.3 3.1v1.9c.2 2 1.3 3.1 3.1 3.1.8 0 1.4-.2 2-.5v.8c-.1.8-.7 1.4-1.5 1.6h-.3c-.7 0-1.2-.2-1.7-.5-.2-.1-.3-.2-.5-.2-.4 0-.7.3-.7.7 0 .4.2.6.5.7.7.5 1.5.7 2.5.7.7 0 1.4-.2 1.9-.6.7-.5 1.1-1.3 1.2-2.2 0-.3.1-.4.1-.7v-.3-3.5zM60 22.9c-.2.1-.8.6-1.8.6-1.2 0-1.8-.6-1.9-1.9v-1.7c.1-1.2.8-1.9 1.9-1.9.9 0 1.6.4 1.8.5v4.4z"/></svg>